<?xml version="1.0" encoding="utf-8"?>
<!-- Generator: Adobe Illustrator 24.0.2, SVG Export Plug-In . SVG Version: 6.00 Build 0)  -->
<svg version="1.1" id="Layer_1" xmlns="http://www.w3.org/2000/svg" xmlns:xlink="http://www.w3.org/1999/xlink" x="0px" y="0px"
	 viewBox="0 0 512 512" style="enable-background:new 0 0 512 512;" xml:space="preserve">
<style type="text/css">
	.st0{fill:#222222;}
</style>
<path class="st0" d="M13.2,435.2c-17.5,17.5-17.6,46,0,63.6c17.5,17.5,46.1,17.5,63.6,0l166.5-165.7l-63.6-63.6L13.2,435.2z"/>
<path class="st0" d="M200.9,248.3l21.2-21.2l63.6,63.6L264.5,312L200.9,248.3z"/>
<path class="st0" d="M497,482h-15v-45c0-8.3-6.7-15-15-15H317c-8.3,0-15,6.7-15,15v45h-15c-8.3,0-15,6.7-15,15c0,8.3,6.7,15,15,15
	h210c8.3,0,15-6.7,15-15C512,488.7,505.3,482,497,482z"/>
<path class="st0" d="M338.8,343.8L360,365c5.8,5.8,15.3,5.8,21.1,0l126.5-126.5c5.8-5.8,5.8-15.3,0-21.1l-21.2-21.2
	c-5.9-5.9-15.4-5.9-21.2,0L338.8,322.6C332.9,328.5,332.9,338,338.8,343.8z"/>
<path class="st0" d="M169.1,174.1c5.9,5.9,15.4,5.9,21.2,0L317.6,46.8c5.9-5.9,5.9-15.4,0-21.2L296.4,4.4c-5.9-5.9-15.4-5.9-21.2,0
	L147.9,131.7c-5.9,5.9-5.9,15.4,0,21.2L169.1,174.1z"/>
<path class="st0" d="M222,184.8L328.2,78.6l106.1,106.1L328,290.9L222,184.8z"/>
</svg>
