<?xml version="1.0" encoding="utf-8"?>
<!-- Generator: Adobe Illustrator 24.0.2, SVG Export Plug-In . SVG Version: 6.00 Build 0)  -->
<svg version="1.1" id="Capa_1" xmlns="http://www.w3.org/2000/svg" xmlns:xlink="http://www.w3.org/1999/xlink" x="0px" y="0px"
	 viewBox="0 0 426.7 426.7" style="enable-background:new 0 0 426.7 426.7;" xml:space="preserve">
<style type="text/css">
	.st0{fill:#222222;}
</style>
<g>
	<g>
		<g>
			<rect x="106.7" y="181.3" class="st0" width="42.7" height="42.7"/>
			<rect x="192" y="181.3" class="st0" width="42.7" height="42.7"/>
			<rect x="277.3" y="181.3" class="st0" width="42.7" height="42.7"/>
			<rect x="106.7" y="266.7" class="st0" width="42.7" height="42.7"/>
			<rect x="192" y="266.7" class="st0" width="42.7" height="42.7"/>
			<rect x="277.3" y="266.7" class="st0" width="42.7" height="42.7"/>
		</g>
	</g>
</g>
<g>
	<g>
		<path class="st0" d="M362.7,53.3V10.7H320v42.7h-42.7V10.7h-42.7v42.7H192V10.7h-42.7v42.7h-42.7V10.7H64v42.7H0V416h426.7V53.3
			H362.7z M384,373.3H42.7V96H64v21.3h42.7V96h42.7v21.3H192V96h42.7v21.3h42.7V96H320v21.3h42.7V96H384V373.3z"/>
	</g>
</g>
</svg>
