<?xml version="1.0" encoding="utf-8"?>
<!-- Generator: Adobe Illustrator 24.1.2, SVG Export Plug-In . SVG Version: 6.00 Build 0)  -->
<svg version="1.1" id="Layer_1" xmlns="http://www.w3.org/2000/svg" xmlns:xlink="http://www.w3.org/1999/xlink" x="0px" y="0px"
	 viewBox="0 0 512 512" style="enable-background:new 0 0 512 512;" xml:space="preserve">
<style type="text/css">
	.st0{fill:#222222;}
</style>
<path class="st0" d="M136.3,138.6c-20.4,5.8-36.6,21.2-43.3,41.3L-0.3,459.8l14.7,14.7l150.1-150.1c-3-6.3-4.8-13.2-4.8-20.6
	c0-26.5,21.5-48,48-48s48,21.5,48,48s-21.5,48-48,48c-7.4,0-14.3-1.8-20.6-4.8L37,497.2l14.7,14.7l279.9-93.3
	c20.1-6.7,35.6-22.9,41.4-43.3l42.8-151.4l-128-128L136.3,138.6L136.3,138.6z M497.6,74l-60.1-60.1c-18.8-18.8-49.2-18.8-67.9,0
	L313,70.5l128,128l56.5-56.6C516.3,123.2,516.3,92.8,497.6,74z"/>
</svg>
