<?xml version="1.0" encoding="utf-8"?>
<!-- Generator: Adobe Illustrator 24.1.2, SVG Export Plug-In . SVG Version: 6.00 Build 0)  -->
<svg version="1.1" id="Layer_1" xmlns="http://www.w3.org/2000/svg" xmlns:xlink="http://www.w3.org/1999/xlink" x="0px" y="0px"
	 viewBox="0 0 512 512" style="enable-background:new 0 0 512 512;" xml:space="preserve">
<style type="text/css">
	.st0{fill:#222222;}
</style>
<path class="st0" d="M433-0.5H81c-25.6,0-48,22.4-48,48v416c0,25.6,22.4,48,48,48h352c25.6,0,48-22.4,48-48v-416
	C481,21.9,458.6-0.5,433-0.5z M161,434.7c0,6.4-6.4,12.8-12.8,12.8h-38.4c-6.4,0-12.8-6.4-12.8-12.8v-38.4c0-6.4,6.4-12.8,12.8-12.8
	h38.4c6.4,0,12.8,6.4,12.8,12.8V434.7z M161,306.7c0,6.4-6.4,12.8-12.8,12.8h-38.4c-6.4,0-12.8-6.4-12.8-12.8v-38.4
	c0-6.4,6.4-12.8,12.8-12.8h38.4c6.4,0,12.8,6.4,12.8,12.8V306.7z M289,434.7c0,6.4-6.4,12.8-12.8,12.8h-38.4
	c-6.4,0-12.8-6.4-12.8-12.8v-38.4c0-6.4,6.4-12.8,12.8-12.8h38.4c6.4,0,12.8,6.4,12.8,12.8V434.7L289,434.7z M289,306.7
	c0,6.4-6.4,12.8-12.8,12.8h-38.4c-6.4,0-12.8-6.4-12.8-12.8v-38.4c0-6.4,6.4-12.8,12.8-12.8h38.4c6.4,0,12.8,6.4,12.8,12.8V306.7
	L289,306.7z M417,434.7c0,6.4-6.4,12.8-12.8,12.8h-38.4c-6.4,0-12.8-6.4-12.8-12.8V268.3c0-6.4,6.4-12.8,12.8-12.8h38.4
	c6.4,0,12.8,6.4,12.8,12.8V434.7L417,434.7z M417,178.7c0,6.4-6.4,12.8-12.8,12.8H109.8c-6.4,0-12.8-6.4-12.8-12.8V76.3
	c0-6.4,6.4-12.8,12.8-12.8h294.4c6.4,0,12.8,6.4,12.8,12.8V178.7z"/>
</svg>
