<svg xmlns="http://www.w3.org/2000/svg" xmlns:xlink="http://www.w3.org/1999/xlink" width="32" height="32" viewBox="0 0 32 32">
  <defs>
    <clipPath id="clip-Icono_32x32_11">
      <rect width="32" height="32"/>
    </clipPath>
  </defs>
  <g id="Icono_32x32_11" data-name="Icono 32x32 – 11" clip-path="url(#clip-Icono_32x32_11)">
    <rect width="32" height="32" fill="#fff"/>
    <path id="Trazado_67" data-name="Trazado 67" d="M1473.132,825.2a1.641,1.641,0,0,1,.98,1.317c.263,1.148.511,2.3.758,3.452a2.76,2.76,0,0,1,.05.535,1.071,1.071,0,0,1-.771,1.112c-.363.131-.729.255-1.1.367a.9.9,0,0,0-.641.7,2.4,2.4,0,0,0,.057,1.377,14.8,14.8,0,0,0,4.489,6.524,9.723,9.723,0,0,0,1.375.95,1.669,1.669,0,0,0,1.029.182.811.811,0,0,0,.617-.36c.2-.3.414-.588.618-.884a1.145,1.145,0,0,1,1.575-.467c.366.156.713.359,1.063.55q.991.539,1.976,1.089c.168.094.334.194.494.3a1.605,1.605,0,0,1,.842,1.216q-.031.218-.063.436c-.145.332-.265.679-.44.995a4.637,4.637,0,0,1-3.55,2.487c-.319.046-.647.032-.971.046l-.753-.109c-.3-.093-.6-.174-.894-.28a12.04,12.04,0,0,1-3.875-2.454,32.409,32.409,0,0,1-7.207-9.894,11.377,11.377,0,0,1-.97-3.631c-.028-.37-.02-.742-.028-1.114l.109-.753c.021-.055.047-.109.062-.166a4.591,4.591,0,0,1,3.512-3.424,9.619,9.619,0,0,1,1.217-.164Z" transform="translate(-1461.171 -820.129)"/>
  </g>
</svg>
