<svg xmlns="http://www.w3.org/2000/svg" xmlns:xlink="http://www.w3.org/1999/xlink" width="32" height="32" viewBox="0 0 32 32">
  <defs>
    <clipPath id="clip-Icono_32x32_14">
      <rect width="32" height="32"/>
    </clipPath>
  </defs>
  <g id="Icono_32x32_14" data-name="Icono 32x32 – 14" clip-path="url(#clip-Icono_32x32_14)">
    <rect width="32" height="32" fill="#fff"/>
    <g id="Grupo_52" data-name="Grupo 52" transform="translate(-1998.209 -555.886)">
      <path id="Trazado_87" data-name="Trazado 87" d="M2014.391,560a.94.94,0,0,1,.571.593c.013.047.135.087.208.091a16.006,16.006,0,0,1,2.952.433,12.781,12.781,0,0,1,5.969,3.107,16.881,16.881,0,0,1,1.352,1.612.74.74,0,0,1,.091.848.785.785,0,0,1-.767.42q-4.742,0-9.483,0h-.292v4.969h.282q1.948,0,3.9,0a2.031,2.031,0,0,1,1.728.827,1.939,1.939,0,0,1,.251,2,1.88,1.88,0,0,1-1.547,1.214,11.144,11.144,0,0,1-1.388.045c-.989.005-1.979,0-2.968,0h-.259v6.076c.3,0,.6,0,.886,0a.775.775,0,1,1,.01,1.539c-1.136,0-2.272,0-3.408,0a.769.769,0,1,1-.007-1.536c.232,0,.464,0,.7,0h.25v-6.078h-.252c-1.314,0-2.628,0-3.942,0a2.042,2.042,0,0,1-2.053-1.521,2.007,2.007,0,0,1,1.682-2.515c1.008-.067,2.023-.036,3.035-.044.5,0,1,0,1.527,0V567.1h-.264q-4.742,0-9.483,0a.838.838,0,0,1-.7-.285.785.785,0,0,1,0-.987,9.724,9.724,0,0,1,3.01-2.912,14.548,14.548,0,0,1,6.207-2.136c.353-.041.708-.061,1.061-.1.074-.008.195-.045.207-.092a.931.931,0,0,1,.571-.592Z" transform="translate(0)"/>
      <path id="Trazado_88" data-name="Trazado 88" d="M2006.523,747.047h1.675c.649,0,1.3,0,1.948,0a.794.794,0,0,1,.888.7q.555,2.451,1.09,4.907a.776.776,0,0,1-.586.993.8.8,0,0,1-.919-.679q-.462-2.057-.906-4.118c-.043-.2-.113-.272-.329-.269-.935.015-1.87.012-2.805,0-.165,0-.222.051-.257.21-.3,1.389-.611,2.775-.92,4.162a.783.783,0,0,1-1,.664.765.765,0,0,1-.509-.96q.53-2.4,1.06-4.8a1.622,1.622,0,0,0,.03-.344q0-4.247,0-8.494a.774.774,0,0,1,1.016-.823.748.748,0,0,1,.517.746c.006.774,0,1.547,0,2.321q0,2.75,0,5.5Z" transform="translate(-1.027 -169.895)"/>
      <path id="Trazado_89" data-name="Trazado 89" d="M2317.609,748.576l-.669,3c-.106.475-.2.952-.319,1.424a.782.782,0,0,1-.909.627.763.763,0,0,1-.587-.951c.3-1.374.606-2.745.91-4.117.06-.271.113-.545.179-.814a.816.816,0,0,1,.924-.719l3.315,0h.281V746.4q0-3.713,0-7.427a.763.763,0,0,1,1.022-.784.793.793,0,0,1,.511.8q0,2.4,0,4.8c0,1.269-.026,2.538.012,3.806a8.019,8.019,0,0,0,.279,1.428c.262,1.2.531,2.4.8,3.6a.779.779,0,0,1-.577,1,.8.8,0,0,1-.927-.67c-.308-1.387-.619-2.773-.918-4.162-.036-.166-.087-.229-.266-.228C2319.659,748.581,2318.647,748.576,2317.609,748.576Z" transform="translate(-297.818 -169.878)"/>
    </g>
  </g>
</svg>
