<svg xmlns="http://www.w3.org/2000/svg" xmlns:xlink="http://www.w3.org/1999/xlink" width="32" height="32" viewBox="0 0 32 32">
  <defs>
    <clipPath id="clip-Icono_32x32_7">
      <rect width="32" height="32"/>
    </clipPath>
  </defs>
  <g id="Icono_32x32_7" data-name="Icono 32x32 – 7" clip-path="url(#clip-Icono_32x32_7)">
    <rect width="32" height="32" fill="#fff"/>
    <g id="Grupo_41" data-name="Grupo 41" transform="translate(-486.874 -494.67)">
      <path id="Trazado_58" data-name="Trazado 58" d="M490.374,513.685h1.22V525.1h8.24V511.319h-9.459Z" transform="translate(0 -3.419)" fill-rule="evenodd"/>
      <path id="Trazado_59" data-name="Trazado 59" d="M510.447,502.156h0a2.556,2.556,0,0,1,2.57-2.5,2.532,2.532,0,0,1,1.08,4.865,2.157,2.157,0,0,1,1.69,1.959v5.675a1.72,1.72,0,0,1-.944,1.554H516.8v-9.459a1.2,1.2,0,0,1,1.149-1.214,1.167,1.167,0,0,1,1.216,1.214v10.677a1.106,1.106,0,0,1-.54,1.012,3.11,3.11,0,0,1,.339,1.42v3.31a1.014,1.014,0,0,1-2.029,0v-3.31a.78.78,0,0,0-.811-.812h-3.375a.825.825,0,0,0-.815.812v3.31a.981.981,0,0,1-.945,1.012,1.036,1.036,0,0,1-1.011-1.012v-3.31a2.872,2.872,0,0,1,.336-1.352c-.136-.135-.271-.2-.405-.339L509.433,520a1.219,1.219,0,0,1-1.145,1.012c-.07,0-.135,0-.135-.067a1.121,1.121,0,0,1-1.079-1.285l.809-6.823a1.171,1.171,0,0,1,1.145-1.082h2.1v-.878a3.775,3.775,0,0,1-.81.27c.069,0,.069.067.069.136,0,.269-.2.405-.474.405h-4.255a.368.368,0,0,1-.405-.271l-1.894-4.933a.366.366,0,0,1,.269-.54c.206-.135.476,0,.611.271l1.754,4.595h2.094a.944.944,0,0,1-.2-.608.9.9,0,0,1,1.01-.812c1.42.068,1.625-.2,1.689-.338.611-.539.541-2.567.541-2.567a1.98,1.98,0,0,1,1.285-1.824,2.539,2.539,0,0,1-1.961-2.5Z" transform="translate(-3.789)" fill-rule="evenodd"/>
    </g>
  </g>
</svg>
