<svg xmlns="http://www.w3.org/2000/svg" xmlns:xlink="http://www.w3.org/1999/xlink" width="32" height="32" viewBox="0 0 32 32">
  <defs>
    <clipPath id="clip-Icono_32x32_12">
      <rect width="32" height="32"/>
    </clipPath>
  </defs>
  <g id="Icono_32x32_12" data-name="Icono 32x32 – 12" clip-path="url(#clip-Icono_32x32_12)">
    <rect width="32" height="32" fill="#fff"/>
    <g id="Grupo_50" data-name="Grupo 50" transform="translate(-840.224 -260.089)">
      <path id="Trazado_68" data-name="Trazado 68" d="M856.224,275.8a.573.573,0,0,1-.275-.071l-12.674-6.913a.576.576,0,0,1,.038-1.03l12.674-5.761a.578.578,0,0,1,.477,0l12.673,5.761a.576.576,0,0,1,.038,1.03L856.5,275.731A.58.58,0,0,1,856.224,275.8Z" transform="translate(0 0)" fill="#fff"/>
      <path id="Trazado_69" data-name="Trazado 69" d="M848.711,270.869l11.385,6.21,11.385-6.21L860.1,265.694Z" transform="translate(-3.872 -2.51)"/>
      <g id="Grupo_44" data-name="Grupo 44" transform="translate(849.887 264.855)">
        <path id="Trazado_70" data-name="Trazado 70" d="M876.913,278.325a.574.574,0,0,1-.267-.066l-12.1-6.337a.576.576,0,1,1,.535-1.02l12.1,6.337a.576.576,0,0,1-.268,1.087Z" transform="translate(-864.24 -270.836)" fill="#fff"/>
      </g>
      <path id="Trazado_71" data-name="Trazado 71" d="M882.538,302.165a.576.576,0,0,1-.576-.576v-14.4a.575.575,0,0,1,.3-.506l12.674-6.913a.576.576,0,0,1,.852.506v14.4a.576.576,0,0,1-.3.506l-12.674,6.913A.579.579,0,0,1,882.538,302.165Z" transform="translate(-26.314 -11.962)" fill="#fff"/>
      <path id="Trazado_72" data-name="Trazado 72" d="M885.507,290.74v13.09l11.522-6.285v-13.09Z" transform="translate(-28.707 -15.173)"/>
      <path id="Trazado_73" data-name="Trazado 73" d="M856.224,302.165a.574.574,0,0,1-.275-.07l-12.674-6.913a.577.577,0,0,1-.3-.506v-14.4a.576.576,0,0,1,.852-.506l12.674,6.913a.576.576,0,0,1,.3.506v14.4a.576.576,0,0,1-.576.576Z" transform="translate(0 -11.962)" fill="#fff"/>
      <path id="Trazado_74" data-name="Trazado 74" d="M846.519,297.545l11.521,6.285V290.74l-11.521-6.284Z" transform="translate(-2.393 -15.173)"/>
      <g id="Grupo_45" data-name="Grupo 45" transform="translate(847.006 274.649)">
        <path id="Trazado_75" data-name="Trazado 75" d="M860.564,309.606a.572.572,0,0,1-.257-.061l-4.609-2.3a.576.576,0,0,1-.318-.515v-5.185a.577.577,0,0,1,.834-.516l4.609,2.3a.576.576,0,0,1,.319.515v5.185a.576.576,0,0,1-.576.576Zm-4.032-3.237,3.456,1.728v-3.9l-3.456-1.728Z" transform="translate(-855.379 -300.964)" fill="#fff"/>
      </g>
      <g id="Grupo_46" data-name="Grupo 46" transform="translate(864.289 274.073)">
        <path id="Trazado_76" data-name="Trazado 76" d="M909.121,306.681a.577.577,0,0,1-.576-.576v-6.337a.576.576,0,0,1,.9-.479l1.728,1.152a.576.576,0,1,1-.639.959l-.833-.555v5.26A.576.576,0,0,1,909.121,306.681Z" transform="translate(-908.545 -299.192)" fill="#fff"/>
      </g>
      <g id="Grupo_47" data-name="Grupo 47" transform="translate(862.561 274.073)">
        <path id="Trazado_77" data-name="Trazado 77" d="M903.8,302.648a.576.576,0,0,1-.46-.922l1.728-2.3a.576.576,0,0,1,.922.692l-1.728,2.3A.575.575,0,0,1,903.8,302.648Z" transform="translate(-903.229 -299.192)" fill="#fff"/>
      </g>
      <g id="Grupo_48" data-name="Grupo 48" transform="translate(859.68 276.377)">
        <path id="Trazado_78" data-name="Trazado 78" d="M894.943,313.77a.576.576,0,0,1-.576-.576v-6.337a.576.576,0,0,1,.9-.479l1.728,1.152a.576.576,0,1,1-.638.959l-.833-.555v5.261A.576.576,0,0,1,894.943,313.77Z" transform="translate(-894.367 -306.281)" fill="#fff"/>
      </g>
      <g id="Grupo_49" data-name="Grupo 49" transform="translate(857.952 276.377)">
        <path id="Trazado_79" data-name="Trazado 79" d="M889.627,309.737a.577.577,0,0,1-.461-.922l1.729-2.3a.576.576,0,0,1,.922.691l-1.729,2.3A.576.576,0,0,1,889.627,309.737Z" transform="translate(-889.051 -306.281)" fill="#fff"/>
      </g>
    </g>
  </g>
</svg>
