<svg xmlns="http://www.w3.org/2000/svg" xmlns:xlink="http://www.w3.org/1999/xlink" width="32" height="32" viewBox="0 0 32 32">
  <defs>
    <clipPath id="clip-Icono_32x32_2">
      <rect width="32" height="32"/>
    </clipPath>
  </defs>
  <g id="Icono_32x32_2" data-name="Icono 32x32 – 2" clip-path="url(#clip-Icono_32x32_2)">
    <rect width="32" height="32" fill="#fff"/>
    <g id="Grupo_19" data-name="Grupo 19" transform="translate(733.468 -1058.282)">
      <path id="Trazado_23" data-name="Trazado 23" d="M-716.218,1077.021c-.782,0-1.571-.007-2.36.01-.085,0-.2.123-.246.214a3.448,3.448,0,0,1-3.289,1.966,3.471,3.471,0,0,1-2.243-.849c-.061.094-.115.177-.168.261-.524.831-1.017,1.681-1.58,2.488a4.419,4.419,0,0,1-2.464,1.8c-1.353.384-3.555-.842-3.391-2.615.112-1.211.224-2.421.328-3.633.15-1.746.307-3.493.433-5.241a4.44,4.44,0,0,1,1.982-3.445.882.882,0,0,0,.274-.37,3.683,3.683,0,0,0,.217-.7,1.525,1.525,0,0,1,1.218-1.182,4.066,4.066,0,0,1,2.768.244,1.267,1.267,0,0,1,.785,1c.039.232.088.463.129.7a.629.629,0,0,0,.731.6h11.32a.6.6,0,0,0,.642-.52c.05-.259.112-.517.153-.777a1.255,1.255,0,0,1,.786-.993,4.091,4.091,0,0,1,2.684-.261,1.556,1.556,0,0,1,1.3,1.235,2.16,2.16,0,0,0,.888,1.383,4.055,4.055,0,0,1,1.578,3.052c.1,1.372.21,2.743.329,4.114.137,1.587.3,3.172.431,4.759a2.219,2.219,0,0,1-.945,2.031,2.821,2.821,0,0,1-3.568.13,4.768,4.768,0,0,1-1.416-1.389c-.508-.785-1-1.582-1.493-2.373l-.166-.266A3.617,3.617,0,0,1-716.218,1077.021Z" transform="translate(0 0)"/>
      <path id="Trazado_24" data-name="Trazado 24" d="M-702.211,1100.953a3.382,3.382,0,0,0,3.391-3.366,3.4,3.4,0,0,0-3.4-3.427,3.409,3.409,0,0,0-3.394,3.432A3.389,3.389,0,0,0-702.211,1100.953Z" transform="translate(-24.098 -26.127)" fill="#fff"/>
      <path id="Trazado_25" data-name="Trazado 25" d="M-495.714,1100.955a3.382,3.382,0,0,0,3.4-3.386,3.4,3.4,0,0,0-3.389-3.406,3.4,3.4,0,0,0-3.4,3.422A3.381,3.381,0,0,0-495.714,1100.955Z" transform="translate(-212.902 -26.131)" fill="#fff"/>
      <path id="Trazado_26" data-name="Trazado 26" d="M-635.392,1162.587a2.044,2.044,0,0,0-2.047,2.047,2.061,2.061,0,0,0,2.082,2.019,2.052,2.052,0,0,0,2.028-2.011A2.035,2.035,0,0,0-635.392,1162.587Z" transform="translate(-86.426 -88.688)" fill="#fff"/>
      <path id="Trazado_27" data-name="Trazado 27" d="M-534.081,1162.582a2.025,2.025,0,0,1,2.045,2.011,2.046,2.046,0,0,1-2.067,2.056,2.045,2.045,0,0,1-2.031-2.035A2.024,2.024,0,0,1-534.081,1162.582Z" transform="translate(-179.044 -88.683)" fill="#fff"/>
      <path id="Trazado_28" data-name="Trazado 28" d="M-692.275,1126.126v-1.581c.345,0,.671,0,1,0a.29.29,0,0,1,.17.079c.241.222.476.451.758.72-.277.259-.52.49-.769.714a.294.294,0,0,1-.177.061C-691.616,1126.129-691.934,1126.126-692.275,1126.126Z" transform="translate(-36.29 -53.907)"/>
      <path id="Trazado_29" data-name="Trazado 29" d="M-662.017,1126.126v-1.581c-.345,0-.671,0-1,0a.29.29,0,0,0-.17.079c-.241.222-.476.451-.758.72.277.259.52.49.769.714a.294.294,0,0,0,.177.061C-662.677,1126.129-662.358,1126.126-662.017,1126.126Z" transform="translate(-62.194 -53.907)"/>
      <path id="Trazado_30" data-name="Trazado 30" d="M-676.057,1108.96h1.581c0,.345,0,.671,0,1a.29.29,0,0,1-.079.17c-.222.241-.451.475-.72.758-.259-.277-.49-.52-.714-.77a.292.292,0,0,1-.061-.177C-676.06,1109.619-676.057,1109.3-676.057,1108.96Z" transform="translate(-51.117 -39.658)"/>
      <path id="Trazado_31" data-name="Trazado 31" d="M-676.057,1138.146h1.581c0-.345,0-.672,0-1a.289.289,0,0,0-.079-.17c-.222-.241-.451-.476-.72-.758-.259.277-.49.52-.714.769a.292.292,0,0,0-.061.177C-676.06,1137.486-676.057,1137.805-676.057,1138.146Z" transform="translate(-51.117 -64.582)"/>
      <path id="Trazado_32" data-name="Trazado 32" d="M-468.241,1145.8a.907.907,0,0,1-.9.9.906.906,0,0,1-.91-.889.907.907,0,0,1,.911-.917A.908.908,0,0,1-468.241,1145.8Z" transform="translate(-239.464 -72.516)"/>
      <path id="Trazado_33" data-name="Trazado 33" d="M-469.143,1101.328a.905.905,0,0,1,.9.9.91.91,0,0,1-.923.907.909.909,0,0,1-.884-.916A.9.9,0,0,1-469.143,1101.328Z" transform="translate(-239.462 -32.681)"/>
      <path id="Trazado_34" data-name="Trazado 34" d="M-490.218,1123.238a.906.906,0,0,1,.9.9.911.911,0,0,1-.926.905.907.907,0,0,1-.882-.918A.9.9,0,0,1-490.218,1123.238Z" transform="translate(-220.192 -52.712)"/>
      <path id="Trazado_35" data-name="Trazado 35" d="M-448.027,1123.1a.906.906,0,0,1,.894.905.91.91,0,0,1-.9.9.907.907,0,0,1-.906-.922A.9.9,0,0,1-448.027,1123.1Z" transform="translate(-258.763 -52.589)"/>
    </g>
  </g>
</svg>
