<svg xmlns="http://www.w3.org/2000/svg" xmlns:xlink="http://www.w3.org/1999/xlink" width="32" height="32" viewBox="0 0 32 32">
  <defs>
    <clipPath id="clip-Icono_32x32_13">
      <rect width="32" height="32"/>
    </clipPath>
  </defs>
  <g id="Icono_32x32_13" data-name="Icono 32x32 – 13" clip-path="url(#clip-Icono_32x32_13)">
    <rect width="32" height="32" fill="#fff"/>
    <g id="Grupo_51" data-name="Grupo 51" transform="translate(1131.292 -952.72)">
      <path id="Trazado_80" data-name="Trazado 80" d="M-1038.068,1028.487l1.982-1.983c.416.387.837.768,1.247,1.162,3.115,3,6.213,6.01,9.355,8.977a.93.93,0,0,1,.152,1.424,4.921,4.921,0,0,1-.505.62c-1,1.018-1.39,1.022-2.352.013q-4.086-4.28-8.168-8.563C-1036.894,1029.578-1037.472,1029.059-1038.068,1028.487Z" transform="translate(-77.724 -60.921)"/>
      <path id="Trazado_81" data-name="Trazado 81" d="M-1115.856,1118.584h-11.935c0-.61,0-1.183,0-1.757a.562.562,0,0,1,.092-.315,12.16,12.16,0,0,1,1.2-1.481,1.552,1.552,0,0,1,.979-.313c2.451-.025,4.9-.011,7.352-.016a1.358,1.358,0,0,1,1.46,1.019c.026.085.029.222.083.247C-1115.353,1116.557-1116.065,1117.659-1115.856,1118.584Z" transform="translate(0 -137.322)"/>
      <path id="Trazado_82" data-name="Trazado 82" d="M-1075.2,983.04l-4.894,5.24-4.278-4.715,4.854-4.844Zm-8.013,1.707,4.7-4.7-.471-.523-4.693,4.687Z" transform="translate(-37.613 -19.529)"/>
      <path id="Trazado_83" data-name="Trazado 83" d="M-1038.129,962.108a1.077,1.077,0,0,1-1.087.953,8.056,8.056,0,0,0-.841.089.988.988,0,0,1-.628-.148q-2.153-2.1-4.25-4.256c-.136-.141-.086-.481-.084-.729,0-.206.143-.449.073-.61-.244-.562.109-.845.469-1.109.383-.281.66-.012.922.249q2.528,2.529,5.054,5.06A3.688,3.688,0,0,1-1038.129,962.108Z" transform="translate(-71.693 0)"/>
      <path id="Trazado_84" data-name="Trazado 84" d="M-1106.731,1018.506a9.372,9.372,0,0,1,1.167-.3.738.738,0,0,1,.506.236q2.046,2.012,4.07,4.047c.284.284.455.576.188,1a.941.941,0,0,0-.007.629.809.809,0,0,1-.532,1.017,1.021,1.021,0,0,1-.847-.253q-2.583-2.514-5.1-5.094a.964.964,0,0,1-.268-.792c.111-.29.455-.492.7-.731Z" transform="translate(-17.514 -53.731)"/>
      <path id="Trazado_85" data-name="Trazado 85" d="M-1078.886,987.055c-.3-.8.494-1.044.857-1.48.387-.465.438-.434.9-.223Z" transform="translate(-42.308 -25.145)"/>
      <path id="Trazado_86" data-name="Trazado 86" d="M-1078.728,989.942l-.467-.537,4.693-4.687.471.523Z" transform="translate(-42.098 -24.723)" fill="#fff"/>
    </g>
  </g>
</svg>
