<svg xmlns="http://www.w3.org/2000/svg" xmlns:xlink="http://www.w3.org/1999/xlink" width="32" height="32" viewBox="0 0 32 32">
  <defs>
    <clipPath id="clip-Icono_32x32">
      <rect width="32" height="32"/>
    </clipPath>
  </defs>
  <g id="Icono_32x32" data-name="Icono 32x32" clip-path="url(#clip-Icono_32x32)">
    <rect width="32" height="32" fill="#fff"/>
    <g id="Grupo_1" data-name="Grupo 1" transform="translate(-3246.933 -847.198)">
      <path id="Trazado_1" data-name="Trazado 1" d="M3277.933,858.566c-.028.087-.053.175-.085.261a1.815,1.815,0,0,1-2.709.621c-.557-.411-1.093-.845-1.677-1.226a18.524,18.524,0,0,0-7.049-2.708,19.977,19.977,0,0,0-4.331-.277,19.018,19.018,0,0,0-10.166,3.31c-.416.288-.8.611-1.2.909a1.838,1.838,0,0,1-2.635-.495,3.413,3.413,0,0,1-.146-.4v-.312a.564.564,0,0,0,.034-.083,1.33,1.33,0,0,1,.463-.737,20.807,20.807,0,0,1,5.934-3.446,23.576,23.576,0,0,1,7.216-1.52c.233-.012.465-.031.7-.046h1.313c.061.008.122.02.184.022a23.513,23.513,0,0,1,3.66.4,21.83,21.83,0,0,1,9.949,4.545,1.385,1.385,0,0,1,.521.81.221.221,0,0,0,.03.058Z" transform="translate(0 0)"/>
      <path id="Trazado_2" data-name="Trazado 2" d="M3302.885,923.152a18.785,18.785,0,0,1,11.7,3.731,1.167,1.167,0,0,1,.489,1.4,1.565,1.565,0,0,1-1.314.97,2.012,2.012,0,0,1-1.641-.391,12.87,12.87,0,0,0-1.828-1.188,14.654,14.654,0,0,0-5.012-1.584,15.576,15.576,0,0,0-3.31-.095,14.218,14.218,0,0,0-7.593,2.757,2.353,2.353,0,0,1-1.018.5,1.978,1.978,0,0,1-1.918-.654,1.158,1.158,0,0,1,.229-1.64,15.384,15.384,0,0,1,3-1.9,18.538,18.538,0,0,1,6.151-1.766C3301.6,923.215,3302.391,923.187,3302.885,923.152Z" transform="translate(-40.242 -64.288)"/>
      <path id="Trazado_3" data-name="Trazado 3" d="M3347.825,995.628a7.68,7.68,0,0,1,5.339,2.276,1.388,1.388,0,0,1-1.918,2.008,5.037,5.037,0,0,0-2.548-1.383,4.96,4.96,0,0,0-4.486,1.234,1.829,1.829,0,0,1-.809.5,1.4,1.4,0,0,1-1.51-.645,1.369,1.369,0,0,1,.17-1.641,7.382,7.382,0,0,1,1.918-1.437A8.019,8.019,0,0,1,3347.825,995.628Z" transform="translate(-84.713 -130.497)"/>
      <circle id="Elipse_1" data-name="Elipse 1" cx="1.643" cy="1.643" r="1.643" transform="translate(3261.291 870.689)"/>
    </g>
  </g>
</svg>
