<svg xmlns="http://www.w3.org/2000/svg" xmlns:xlink="http://www.w3.org/1999/xlink" width="32" height="32" viewBox="0 0 32 32">
  <defs>
    <clipPath id="clip-Icono_32x32_5">
      <rect width="32" height="32"/>
    </clipPath>
  </defs>
  <g id="Icono_32x32_5" data-name="Icono 32x32 – 5" clip-path="url(#clip-Icono_32x32_5)">
    <rect width="32" height="32" fill="#fff"/>
    <g id="Grupo_26" data-name="Grupo 26" transform="translate(239.624 -358.691)">
      <g id="Grupo_23" data-name="Grupo 23" transform="translate(-236.624 370.629)">
        <path id="Trazado_43" data-name="Trazado 43" d="M-219.225,394.34h-8.8a8.161,8.161,0,0,1-8-5.966l-.557-2.146a1.336,1.336,0,0,1,.241-1.161,1.448,1.448,0,0,1,1.156-.559h23.119a1.448,1.448,0,0,1,1.156.559,1.336,1.336,0,0,1,.241,1.161l-.557,2.146A8.161,8.161,0,0,1-219.225,394.34Zm-15.958-9.229a.849.849,0,0,0-.679.325.729.729,0,0,0-.135.641l.557,2.146a7.558,7.558,0,0,0,7.417,5.515h8.8a7.558,7.558,0,0,0,7.417-5.515l.557-2.146a.729.729,0,0,0-.135-.641.849.849,0,0,0-.679-.325Z" transform="translate(236.624 -384.509)"/>
      </g>
      <g id="Grupo_24" data-name="Grupo 24" transform="translate(-234.142 367.667)">
        <path id="Trazado_44" data-name="Trazado 44" d="M-201.874,369.311a23.387,23.387,0,0,1-6.995-1.123,10.473,10.473,0,0,0-3.126-.52,10.472,10.472,0,0,0-3.126.52,23.389,23.389,0,0,1-6.994,1.123h0a.4.4,0,0,0-.4.4V371.2a10.518,10.518,0,0,0,10.518,10.518h0A10.518,10.518,0,0,0-201.477,371.2v-1.489a.4.4,0,0,0-.4-.4Z" transform="translate(222.513 -367.667)"/>
      </g>
      <path id="Trazado_45" data-name="Trazado 45" d="M-201.874,369.311a23.387,23.387,0,0,1-6.995-1.123,10.473,10.473,0,0,0-3.126-.52,10.471,10.471,0,0,0-3.126.52,23.388,23.388,0,0,1-6.994,1.123.4.4,0,0,0-.4.4V371.2a10.518,10.518,0,0,0,10.518,10.518h0A10.518,10.518,0,0,0-201.477,371.2v-1.489A.4.4,0,0,0-201.874,369.311Zm-.206,1.886a9.927,9.927,0,0,1-9.915,9.915,9.927,9.927,0,0,1-9.915-9.915v-1.285a24.045,24.045,0,0,0,6.971-1.15,9.805,9.805,0,0,1,2.944-.492,9.8,9.8,0,0,1,2.944.492,24.047,24.047,0,0,0,6.971,1.15Z" transform="translate(-11.629)" fill="#fff"/>
      <g id="Grupo_25" data-name="Grupo 25" transform="translate(-228.908 369.987)">
        <path id="Trazado_46" data-name="Trazado 46" d="M-192.622,382.537l-.131-.588c.677-.151,1.373-.338,2.067-.558a10.678,10.678,0,0,1,3.216-.534,10.686,10.686,0,0,1,3.218.534c.683.216,1.379.4,2.067.557l-.131.588c-.705-.157-1.418-.349-2.118-.57a10.086,10.086,0,0,0-3.036-.506,10.081,10.081,0,0,0-3.034.506C-191.215,382.19-191.927,382.382-192.622,382.537Z" transform="translate(192.753 -380.856)" fill="#fff"/>
      </g>
    </g>
  </g>
</svg>
