<svg xmlns="http://www.w3.org/2000/svg" xmlns:xlink="http://www.w3.org/1999/xlink" width="32" height="32" viewBox="0 0 32 32">
  <defs>
    <clipPath id="clip-Icono_32x32_3">
      <rect width="32" height="32"/>
    </clipPath>
  </defs>
  <g id="Icono_32x32_3" data-name="Icono 32x32 – 3" clip-path="url(#clip-Icono_32x32_3)">
    <rect width="32" height="32" fill="#fff"/>
    <g id="Grupo_18" data-name="Grupo 18" transform="translate(-107.772 -457.283)">
      <g id="Grupo_17" data-name="Grupo 17" transform="translate(113.772 461.324)">
        <path id="Trazado_22" data-name="Trazado 22" d="M133.7,463.664a.415.415,0,0,0-.493-.383c-.134.025-.269.049-.4.07a14.47,14.47,0,0,1-2.457.191,12.026,12.026,0,0,1-2.058-.2,10.543,10.543,0,0,1-1.665-.451,9.5,9.5,0,0,1-1.28-.575,8.179,8.179,0,0,1-.9-.568c-.105-.077-.209-.157-.31-.24a.6.6,0,0,0-.326-.189.509.509,0,0,0-.329.145c-.164.132-.329.262-.5.383a8.4,8.4,0,0,1-.963.574,9.583,9.583,0,0,1-1.337.559,10.621,10.621,0,0,1-1.719.415,12.184,12.184,0,0,1-2.107.142,14.938,14.938,0,0,1-2.5-.26.416.416,0,0,0-.493.382c-.133,2.176-.478,11.276,2.721,15.28a23.114,23.114,0,0,0,7.02,6.255.412.412,0,0,0,.365,0,22.321,22.321,0,0,0,7.019-6.256C134.15,474.921,133.825,465.841,133.7,463.664Zm-4.622,7.268-5.928,6.579a1.2,1.2,0,0,1-1.61.161l-2.273-1.686a1.2,1.2,0,0,1,1.432-1.932l1.4,1.035,5.2-5.767a1.2,1.2,0,0,1,1.787,1.61Z" transform="translate(-113.772 -461.324)"/>
      </g>
    </g>
  </g>
</svg>
