<svg xmlns="http://www.w3.org/2000/svg" xmlns:xlink="http://www.w3.org/1999/xlink" width="32" height="32" viewBox="0 0 32 32">
  <defs>
    <clipPath id="clip-Icono_32x32_1">
      <rect width="32" height="32"/>
    </clipPath>
  </defs>
  <g id="Icono_32x32_1" data-name="Icono 32x32 – 1" clip-path="url(#clip-Icono_32x32_1)">
    <rect width="32" height="32" fill="#fff"/>
    <g id="Grupo_9" data-name="Grupo 9" transform="translate(-912.727 -439.169)">
      <g id="Grupo_3" data-name="Grupo 3" transform="translate(924.757 444.932)">
        <g id="Grupo_2" data-name="Grupo 2">
          <path id="Trazado_4" data-name="Trazado 4" d="M947.972,460.695v-.283h.338v.329q0,6.228,0,12.455a2.8,2.8,0,0,0,.041.545,1,1,0,0,0,.675.7h.5a1.111,1.111,0,0,0,.764-1.216c-.016-2.346-.007-4.692-.007-7.039v-.307h.341v.3c0,2.338.011,4.676-.008,7.014a1.137,1.137,0,0,0,.757,1.247h.5a1.13,1.13,0,0,0,.748-1.23q-.015-6.226-.005-12.452v-.341h.324v.3q0,2.109,0,4.217a2.606,2.606,0,0,0,.021.348.73.73,0,0,0,1.454-.09c.006-1.164,0-2.329,0-3.493,0-.557,0-1.115,0-1.672a2.212,2.212,0,0,0-2.251-2.29c-.412-.006-.825-.009-1.237-.011v.2l-.263.536-.041.11.255,4.351-.448.5-.007-.007-.006.007-.449-.5.255-4.351-.042-.11-.263-.536v-.2c-.391,0-.781,0-1.171.007a2.174,2.174,0,0,0-2.227,1.793.448.448,0,0,1-.041.087V465.4a.868.868,0,0,0,.527.483.733.733,0,0,0,.957-.673,3.365,3.365,0,0,0,.007-.349Q947.972,462.779,947.972,460.695Z" transform="translate(-946.481 -453.966)"/>
          <path id="Trazado_5" data-name="Trazado 5" d="M955.762,448.32a1.709,1.709,0,0,0,1.742-1.031,1.655,1.655,0,0,0-.508-1.972,4.459,4.459,0,0,0-.741-.385h-.649a2.3,2.3,0,0,1-.22.1,1.71,1.71,0,0,0-1.111,1.943A1.729,1.729,0,0,0,955.762,448.32Z" transform="translate(-951.961 -444.932)"/>
        </g>
        <rect id="Rectángulo_2" data-name="Rectángulo 2" width="2.28" height="6.051" transform="translate(3.043 3.757)"/>
      </g>
      <g id="Grupo_8" data-name="Grupo 8" transform="translate(915.227 444.932)">
        <g id="Grupo_5" data-name="Grupo 5">
          <g id="Grupo_4" data-name="Grupo 4">
            <path id="Trazado_6" data-name="Trazado 6" d="M916.718,460.695v-.283h.338v.329q0,6.228,0,12.455a2.789,2.789,0,0,0,.041.545,1,1,0,0,0,.675.7h.5a1.11,1.11,0,0,0,.764-1.216c-.016-2.346-.006-4.692-.006-7.039v-.307h.341v.3c0,2.338.011,4.676-.008,7.014a1.137,1.137,0,0,0,.757,1.247h.5a1.129,1.129,0,0,0,.748-1.23q-.015-6.226-.005-12.452v-.341h.324v.3q0,2.109,0,4.217a2.556,2.556,0,0,0,.021.348.73.73,0,0,0,1.454-.09c.006-1.164,0-2.329,0-3.493,0-.557,0-1.115,0-1.672a2.212,2.212,0,0,0-2.251-2.29c-.412-.006-.824-.009-1.237-.011v.2l-.264.536-.041.11.255,4.351-.448.5-.006-.007-.006.007-.449-.5.255-4.351-.042-.11-.264-.536v-.2c-.39,0-.781,0-1.171.007a2.174,2.174,0,0,0-2.227,1.793.449.449,0,0,1-.041.087V465.4a.869.869,0,0,0,.527.483.733.733,0,0,0,.956-.673,3.3,3.3,0,0,0,.007-.349Q916.718,462.779,916.718,460.695Z" transform="translate(-915.227 -453.966)"/>
            <path id="Trazado_7" data-name="Trazado 7" d="M924.509,448.32a1.709,1.709,0,0,0,1.742-1.031,1.655,1.655,0,0,0-.508-1.972,4.464,4.464,0,0,0-.741-.385h-.649a2.33,2.33,0,0,1-.22.1,1.711,1.711,0,0,0-1.111,1.943A1.729,1.729,0,0,0,924.509,448.32Z" transform="translate(-920.707 -444.932)"/>
          </g>
          <rect id="Rectángulo_3" data-name="Rectángulo 3" width="2.28" height="6.051" transform="translate(3.043 3.757)"/>
        </g>
        <g id="Grupo_7" data-name="Grupo 7" transform="translate(19.06)">
          <g id="Grupo_6" data-name="Grupo 6">
            <path id="Trazado_8" data-name="Trazado 8" d="M979.225,460.695v-.283h.338v.329q0,6.228,0,12.455a2.743,2.743,0,0,0,.041.545,1,1,0,0,0,.675.7h.5a1.11,1.11,0,0,0,.764-1.216c-.016-2.346-.007-4.692-.007-7.039v-.307h.341v.3c0,2.338.011,4.676-.008,7.014a1.138,1.138,0,0,0,.757,1.247h.5a1.129,1.129,0,0,0,.748-1.23q-.015-6.226-.005-12.452v-.341h.324v.3q0,2.109,0,4.217a2.546,2.546,0,0,0,.021.348.73.73,0,0,0,1.454-.09c.006-1.164,0-2.329,0-3.493,0-.557,0-1.115,0-1.672a2.212,2.212,0,0,0-2.251-2.29c-.412-.006-.825-.009-1.237-.011v.2l-.264.536-.041.11.255,4.351-.448.5-.006-.007-.007.007-.449-.5.255-4.351-.042-.11-.264-.536v-.2c-.39,0-.781,0-1.171.007a2.175,2.175,0,0,0-2.227,1.793.448.448,0,0,1-.041.087V465.4a.869.869,0,0,0,.527.483.734.734,0,0,0,.957-.673,3.3,3.3,0,0,0,.007-.349Q979.226,462.779,979.225,460.695Z" transform="translate(-977.734 -453.966)"/>
            <path id="Trazado_9" data-name="Trazado 9" d="M987.016,448.32a1.708,1.708,0,0,0,1.742-1.031,1.655,1.655,0,0,0-.508-1.972,4.438,4.438,0,0,0-.742-.385h-.649a2.33,2.33,0,0,1-.22.1,1.71,1.71,0,0,0-1.111,1.943A1.729,1.729,0,0,0,987.016,448.32Z" transform="translate(-983.214 -444.932)"/>
          </g>
          <rect id="Rectángulo_4" data-name="Rectángulo 4" width="2.28" height="6.051" transform="translate(3.043 3.757)"/>
        </g>
      </g>
    </g>
  </g>
</svg>
