<svg xmlns="http://www.w3.org/2000/svg" xmlns:xlink="http://www.w3.org/1999/xlink" width="32" height="32" viewBox="0 0 32 32">
  <defs>
    <clipPath id="clip-Icono_32x32_9">
      <rect width="32" height="32"/>
    </clipPath>
  </defs>
  <g id="Icono_32x32_9" data-name="Icono 32x32 – 9" clip-path="url(#clip-Icono_32x32_9)">
    <rect width="32" height="32" fill="#fff"/>
    <g id="Grupo_42" data-name="Grupo 42" transform="translate(-487.039 -389.872)">
      <path id="Trazado_60" data-name="Trazado 60" d="M499.288,407.242h0v.562h2.237v5.6h-7.611v-5.6h2.239v-.562a.54.54,0,0,1,.505-.447h.053a.993.993,0,0,1-.053-.392c.336-2.126,2.183-6.828,4.59-8.116,0-.112.054-.224.054-.336a2.72,2.72,0,0,1-1.566-2.463,2.743,2.743,0,1,1,5.485,0,2.72,2.72,0,0,1-1.566,2.463v.336a7.632,7.632,0,0,1,.895.673,8.115,8.115,0,0,1,.841.615,12.312,12.312,0,0,1,1.789,1.624c1.289,1.287,2.129,2.071,3.64,1.96a1.188,1.188,0,0,1,1.344,1.062c-.044.949-.63,1.535-1.216,1.535a4.433,4.433,0,0,1-1.3-.247,9.033,9.033,0,0,1-4.2-2.632h-.053c-.059.17-.112.394-.112.394,0,4.869-.111,9.683-.111,14.554a1.257,1.257,0,0,1-1.288,1.231,1.244,1.244,0,0,1-1.233-1.231v-8.79h-.223v8.79a1.26,1.26,0,0,1-2.519,0v-3.974h2.016v-6.382h-2.13a3.3,3.3,0,0,1-.165-.841v-3.693a17.193,17.193,0,0,0-.842,3.749c0,.056-.053.056-.053.111h.053a.493.493,0,0,1,.505.447Z" transform="translate(0 0)" fill-rule="evenodd"/>
      <path id="Trazado_61" data-name="Trazado 61" d="M500.849,425h-2.631v.671h2.631Z" transform="translate(-1.783 -13.387)" fill="#fff" fill-rule="evenodd"/>
      <path id="Trazado_62" data-name="Trazado 62" d="M501,422.8h-4.031v.671H501Z" transform="translate(-1.267 -12.476)" fill="#fff" fill-rule="evenodd"/>
      <path id="Trazado_63" data-name="Trazado 63" d="M501.2,420.6h-5.372v.673H501.2Z" transform="translate(-0.793 -11.564)" fill="#fff" fill-rule="evenodd"/>
    </g>
  </g>
</svg>
