<svg xmlns="http://www.w3.org/2000/svg" xmlns:xlink="http://www.w3.org/1999/xlink" width="32" height="32" viewBox="0 0 32 32">
  <defs>
    <clipPath id="clip-Icono_32x32_8">
      <rect width="32" height="32"/>
    </clipPath>
  </defs>
  <g id="Icono_32x32_8" data-name="Icono 32x32 – 8" clip-path="url(#clip-Icono_32x32_8)">
    <rect width="32" height="32" fill="#fff"/>
    <path id="Trazado_57" data-name="Trazado 57" d="M2712.523,3294.754c0-.415,0-.848-.007-1.281a1.535,1.535,0,0,0-1.486-1.659,4.871,4.871,0,0,0-.585-.025c-3.986,0-7.973-.008-11.959.01a.854.854,0,0,1-.9-.505,2.486,2.486,0,0,0-2.78-1.531,38.207,38.207,0,0,1-3.89.017,1.853,1.853,0,0,0-1.919,1.08v19.531a2.19,2.19,0,0,0,2.178.99c6.162-.025,12.319-.013,18.481-.013,1.2,0,1.671-.449,1.883-1.635.583-3.256,1.194-6.507,1.8-9.759.177-.956.37-1.912.553-2.867a.225.225,0,0,1,.109-.192v-1.074C2713.414,3295.035,2713.4,3295.012,2712.523,3294.754ZM2690,3291.662c0-.69.112-.8.782-.8,1.61,0,3.221-.012,4.831.014a1,1,0,0,1,.631.322,6.179,6.179,0,0,1,.594.888,1.628,1.628,0,0,0,1.511.787c4.066-.019,8.145-.01,12.212-.009.828,0,.9.059.9.88v1.106h-.738c-5.839,0-11.679-.017-17.518-.016a1.515,1.515,0,0,0-1.758,1.463c-.436,2.373-.879,4.74-1.414,7.112-.011-.14-.031-.282-.031-.422Q2690,3297.325,2690,3291.662Z" transform="translate(-2685.5 -3284.563)"/>
  </g>
</svg>
