<svg xmlns="http://www.w3.org/2000/svg" xmlns:xlink="http://www.w3.org/1999/xlink" width="32" height="32" viewBox="0 0 32 32">
  <defs>
    <clipPath id="clip-Icono_32x32_6">
      <rect width="32" height="32"/>
    </clipPath>
  </defs>
  <g id="Icono_32x32_6" data-name="Icono 32x32 – 6" clip-path="url(#clip-Icono_32x32_6)">
    <rect width="32" height="32" fill="#fff"/>
    <g id="Grupo_40" data-name="Grupo 40" transform="translate(-158.234 -939.324)">
      <rect id="Rectángulo_6" data-name="Rectángulo 6" width="1.285" height="21.295" transform="translate(173.592 944.508)"/>
      <g id="Grupo_39" data-name="Grupo 39" transform="translate(163.234 943.481)">
        <g id="Grupo_30" data-name="Grupo 30" transform="translate(0 0)">
          <path id="Trazado_47" data-name="Trazado 47" d="M185.234,948.757a.878.878,0,0,1-.846.907H164.08a.878.878,0,0,1-.846-.907v-4.37a.878.878,0,0,1,.846-.907h20.307a.878.878,0,0,1,.846.907Z" transform="translate(-163.234 -943.481)"/>
          <g id="Grupo_29" data-name="Grupo 29" transform="translate(2.446 1.027)">
            <g id="Grupo_27" data-name="Grupo 27" transform="translate(0 0.516)">
              <rect id="Rectángulo_7" data-name="Rectángulo 7" width="6.314" height="0.929" fill="#fff"/>
              <rect id="Rectángulo_8" data-name="Rectángulo 8" width="6.314" height="0.929" transform="translate(0 2.168)" fill="#fff"/>
            </g>
            <g id="Grupo_28" data-name="Grupo 28" transform="translate(7.741)">
              <rect id="Rectángulo_9" data-name="Rectángulo 9" width="0.642" height="4.129" fill="#fff"/>
              <rect id="Rectángulo_10" data-name="Rectángulo 10" width="0.642" height="4.129" transform="translate(1.606)" fill="#fff"/>
              <rect id="Rectángulo_11" data-name="Rectángulo 11" width="0.642" height="4.129" transform="translate(3.212)" fill="#fff"/>
            </g>
            <path id="Trazado_48" data-name="Trazado 48" d="M235.017,950.325a.579.579,0,1,1-.579-.579A.579.579,0,0,1,235.017,950.325Z" transform="translate(-219.547 -949.333)" fill="#fff"/>
            <circle id="Elipse_3" data-name="Elipse 3" cx="0.579" cy="0.579" r="0.579" transform="translate(12.563 0.413)" fill="#fff"/>
            <circle id="Elipse_4" data-name="Elipse 4" cx="0.579" cy="0.579" r="0.579" transform="translate(15.95 0.413)" fill="#fff"/>
          </g>
        </g>
        <g id="Grupo_34" data-name="Grupo 34" transform="translate(0 7.273)">
          <path id="Trazado_49" data-name="Trazado 49" d="M185.234,979.166a.878.878,0,0,1-.846.907H164.08a.878.878,0,0,1-.846-.907V974.8a.878.878,0,0,1,.846-.907h20.307a.878.878,0,0,1,.846.907Z" transform="translate(-163.234 -973.89)"/>
          <g id="Grupo_33" data-name="Grupo 33" transform="translate(2.446 1.027)">
            <g id="Grupo_31" data-name="Grupo 31" transform="translate(0 0.516)">
              <rect id="Rectángulo_12" data-name="Rectángulo 12" width="6.314" height="0.929" fill="#fff"/>
              <rect id="Rectángulo_13" data-name="Rectángulo 13" width="6.314" height="0.929" transform="translate(0 2.168)" fill="#fff"/>
            </g>
            <g id="Grupo_32" data-name="Grupo 32" transform="translate(7.741)">
              <rect id="Rectángulo_14" data-name="Rectángulo 14" width="0.642" height="4.129" fill="#fff"/>
              <rect id="Rectángulo_15" data-name="Rectángulo 15" width="0.642" height="4.129" transform="translate(1.606)" fill="#fff"/>
              <rect id="Rectángulo_16" data-name="Rectángulo 16" width="0.642" height="4.129" transform="translate(3.212)" fill="#fff"/>
            </g>
            <path id="Trazado_50" data-name="Trazado 50" d="M235.017,980.734a.579.579,0,1,1-.579-.578A.579.579,0,0,1,235.017,980.734Z" transform="translate(-219.547 -979.743)" fill="#fff"/>
            <circle id="Elipse_5" data-name="Elipse 5" cx="0.579" cy="0.579" r="0.579" transform="translate(12.563 0.413)" fill="#fff"/>
            <circle id="Elipse_6" data-name="Elipse 6" cx="0.579" cy="0.579" r="0.579" transform="translate(15.95 0.413)" fill="#fff"/>
          </g>
        </g>
        <g id="Grupo_38" data-name="Grupo 38" transform="translate(0 14.546)">
          <path id="Trazado_51" data-name="Trazado 51" d="M185.234,1009.576a.878.878,0,0,1-.846.906H164.08a.878.878,0,0,1-.846-.906v-4.37a.878.878,0,0,1,.846-.907h20.307a.878.878,0,0,1,.846.907Z" transform="translate(-163.234 -1004.3)"/>
          <g id="Grupo_37" data-name="Grupo 37" transform="translate(2.446 1.027)">
            <g id="Grupo_35" data-name="Grupo 35" transform="translate(0 0.516)">
              <rect id="Rectángulo_17" data-name="Rectángulo 17" width="6.314" height="0.929" fill="#fff"/>
              <rect id="Rectángulo_18" data-name="Rectángulo 18" width="6.314" height="0.929" transform="translate(0 2.168)" fill="#fff"/>
            </g>
            <g id="Grupo_36" data-name="Grupo 36" transform="translate(7.741)">
              <rect id="Rectángulo_19" data-name="Rectángulo 19" width="0.642" height="4.129" fill="#fff"/>
              <rect id="Rectángulo_20" data-name="Rectángulo 20" width="0.642" height="4.129" transform="translate(1.606)" fill="#fff"/>
              <rect id="Rectángulo_21" data-name="Rectángulo 21" width="0.642" height="4.129" transform="translate(3.212)" fill="#fff"/>
            </g>
            <path id="Trazado_52" data-name="Trazado 52" d="M235.017,1011.144a.579.579,0,1,1-.579-.579A.579.579,0,0,1,235.017,1011.144Z" transform="translate(-219.547 -1010.152)" fill="#fff"/>
            <path id="Trazado_53" data-name="Trazado 53" d="M227.891,1011.144a.579.579,0,1,1-.579-.579A.579.579,0,0,1,227.891,1011.144Z" transform="translate(-214.171 -1010.152)" fill="#fff"/>
            <path id="Trazado_54" data-name="Trazado 54" d="M242.143,1011.144a.579.579,0,1,1-.578-.579A.578.578,0,0,1,242.143,1011.144Z" transform="translate(-225.036 -1010.152)" fill="#fff"/>
          </g>
        </g>
      </g>
      <rect id="Rectángulo_22" data-name="Rectángulo 22" width="15.47" height="0.79" transform="translate(166.499 966.073)"/>
      <rect id="Rectángulo_23" data-name="Rectángulo 23" width="2.93" height="1.4" transform="translate(172.769 965.768)"/>
    </g>
  </g>
</svg>
