<?xml version="1.0" encoding="utf-8"?>
<!-- Generator: Adobe Illustrator 24.1.2, SVG Export Plug-In . SVG Version: 6.00 Build 0)  -->
<svg version="1.1" id="Layer_1" xmlns="http://www.w3.org/2000/svg" xmlns:xlink="http://www.w3.org/1999/xlink" x="0px" y="0px"
	 viewBox="0 0 512 512" style="enable-background:new 0 0 512 512;" xml:space="preserve">
<style type="text/css">
	.st0{fill:#222222;}
</style>
<path class="st0" d="M320,336.5c0,8.8-7.2,16-16,16h-96c-8.8,0-16-7.2-16-16v-48H0v144c0,25.6,22.4,48,48,48h416
	c25.6,0,48-22.4,48-48v-144H320V336.5z M464,128.5h-80v-48c0-25.6-22.4-48-48-48H176c-25.6,0-48,22.4-48,48v48H48
	c-25.6,0-48,22.4-48,48v80h512v-80C512,150.9,489.6,128.5,464,128.5z M320,128.5H192v-32h128V128.5z"/>
</svg>
