<?xml version="1.0" encoding="utf-8"?>
<!-- Generator: Adobe Illustrator 24.0.2, SVG Export Plug-In . SVG Version: 6.00 Build 0)  -->
<svg version="1.1" id="Layer_1" xmlns="http://www.w3.org/2000/svg" xmlns:xlink="http://www.w3.org/1999/xlink" x="0px" y="0px"
	 viewBox="0 0 469.3 469.3" style="enable-background:new 0 0 469.3 469.3;" xml:space="preserve">
<style type="text/css">
	.st0{fill:#222222;}
</style>
<g>
	<g>
		<path class="st0" d="M468.5,6.6c-1.6-4-5.5-6.6-9.9-6.6C44.7,0,0,171.6,0,245.3c0,26.5,5.9,51.3,17.5,73.7
			c1.8,3.5,5.3,5.7,9.2,5.7c3.7-0.1,7.5-1.9,9.5-5.3C64.2,271.1,143.3,151.9,274,88.6c5.4-2.6,11.8-0.4,14.3,4.9
			c2.6,5.3,0.3,11.7-4.9,14.3c-9.9,4.8-19.3,10-28.6,15.4c-3.5,2.1-7,4.3-10.5,6.4c-5.2,3.2-10.4,6.5-15.4,10
			c-5,3.4-10,6.8-14.8,10.4c-1.5,1.1-3,2.2-4.5,3.4C79.5,250.2,0,404.8,0,458.7c0,5.9,4.8,10.7,10.7,10.7s10.7-4.8,10.7-10.7
			c0-17.2,11.7-52.1,33.9-93.6c32.2,26.3,75.5,40.3,126.1,40.3c137,0,165.7-130.3,181.1-200.4c20.7-94.3,66.4-149.3,103.8-186.8
			C469.3,15.1,470.2,10.6,468.5,6.6z"/>
	</g>
</g>
</svg>
