<?xml version="1.0" encoding="utf-8"?>
<!-- Generator: Adobe Illustrator 24.0.2, SVG Export Plug-In . SVG Version: 6.00 Build 0)  -->
<svg version="1.1" id="Layer_1" xmlns="http://www.w3.org/2000/svg" xmlns:xlink="http://www.w3.org/1999/xlink" x="0px" y="0px"
	 viewBox="0 0 150 64" style="enable-background:new 0 0 150 64;" xml:space="preserve">
<g>
	<g>
		<g>
			<g>
				<g>
					<path d="M65.29,27.71c0.53,1.92,1.06,3.84,1.64,5.76c0.99,3.44,1.16,3.99,1.72,7.45c0.53-3.54,0.66-4.14,1.47-7.78
						c0.38-1.82,0.78-3.64,1.16-5.43h4.42l-4.52,17.84h-4.6c-0.56-1.97-1.09-3.94-1.67-5.89c-0.96-3.29-1.01-3.41-1.54-5.91
						c-0.46,2.2-0.51,2.38-1.52,5.79l-1.72,6.01h-4.6l-4.52-17.84h4.45c1.92,8.46,2.12,9.4,2.65,13.27
						c0.66-3.54,0.83-4.22,1.77-7.76l1.47-5.51H65.29z"/>
					<path d="M85.17,46.06c-5.66,0-8.87-4.35-8.87-9.5c0-4.83,3.06-9.4,8.79-9.4c1.06,0,2.17,0.15,3.26,0.53
						c5.46,1.9,5.81,7.83,5.81,9.05c0,3.08-1.42,5.86-3.39,7.45C89.04,45.63,87.01,46.06,85.17,46.06z M88.25,32.18
						c-0.76-0.81-1.92-1.31-3.13-1.31c-2.7,0-4.42,2.38-4.42,5.61c0,4.25,2.38,5.81,4.47,5.81c2.12,0,4.4-1.52,4.52-5.26
						C89.77,35.17,89.26,33.27,88.25,32.18z"/>
					<path d="M96.94,27.71h8.04c1.87,0.03,4.19,0.05,5.84,1.82c0.83,0.94,1.42,2.35,1.42,3.97c0,3.59-2.45,4.47-3.66,4.93l4.12,7.13
						h-4.93l-3.54-6.37h-2.8v6.37h-4.47V27.71z M101.42,31.05v4.83h3.69c0.63-0.03,2.68-0.08,2.68-2.45c0-2.27-1.64-2.35-2.58-2.38
						H101.42z"/>
					<path d="M115.92,27.71h4.25v7.28l6.67-7.28h5.36l-6.32,6.62l6.82,11.22h-5.03l-4.78-8.09l-2.73,2.86v5.23h-4.25V27.71z"/>
					<path d="M136.23,40.19c0.46,0.51,0.83,0.91,1.72,1.39c1.19,0.63,2.4,0.86,3.44,0.86c1.77,0,3.28-0.83,3.28-2.07
						c0-1.42-1.79-1.64-3.11-1.82c-0.99-0.13-1.97-0.25-2.93-0.46c-1.09-0.23-4.8-1.01-4.8-4.85c0-4.6,4.09-5.96,7.18-5.96
						c4.12,0,6.34,2,7.88,3.39l-3.28,2.35c-0.56-0.56-1.06-1.04-1.77-1.44c-0.63-0.35-1.77-0.78-2.91-0.78
						c-1.77,0-2.65,1.01-2.65,1.87c0,1.36,1.52,1.57,2.27,1.67c1.89,0.23,4.45,0.71,5.46,1.06c2.05,0.76,3.08,2.35,3.08,4.37
						c0,1.29-0.48,2.7-1.42,3.79c-1.62,1.87-4.19,2.4-6.7,2.4c-5.03,0-7.03-2.32-8.14-3.61L136.23,40.19z"/>
				</g>
			</g>
			<g>
				<g>
					<path d="M67.81,17.34c-0.66,1.04-1.29,2.05-2.7,3.03c-0.76,0.53-2.5,1.57-4.98,1.57c-4.72,0-8.54-3.44-8.54-9.47
						c0-5.28,3.59-9.45,8.64-9.45c2.05,0,3.87,0.71,5.2,1.77c1.24,0.99,1.82,1.97,2.32,2.86l-3.54,1.77
						c-0.25-0.58-0.56-1.19-1.34-1.84c-0.86-0.68-1.72-0.88-2.45-0.88c-2.88,0-4.4,2.68-4.4,5.66c0,3.92,2,5.86,4.4,5.86
						c2.32,0,3.26-1.62,3.87-2.65L67.81,17.34z"/>
					<path d="M77.92,21.91c-5.66,0-8.87-4.35-8.87-9.5c0-4.83,3.06-9.4,8.79-9.4c1.06,0,2.17,0.15,3.26,0.53
						c5.46,1.89,5.81,7.83,5.81,9.05c0,3.08-1.41,5.86-3.39,7.45C81.78,21.48,79.76,21.91,77.92,21.91z M81,8.04
						c-0.76-0.81-1.92-1.31-3.13-1.31c-2.7,0-4.42,2.38-4.42,5.61c0,4.24,2.37,5.81,4.47,5.81c2.12,0,4.4-1.52,4.52-5.26
						C82.51,11.02,82.01,9.13,81,8.04z"/>
					<path d="M89.69,3.57h8.03c1.87,0.03,4.19,0.05,5.84,1.82c0.83,0.93,1.41,2.35,1.41,3.97c0,3.59-2.45,4.47-3.66,4.93l4.12,7.13
						h-4.93l-3.54-6.37h-2.8v6.37h-4.47V3.57z M94.16,6.9v4.83h3.69c0.63-0.03,2.68-0.08,2.68-2.45c0-2.27-1.64-2.35-2.58-2.38
						H94.16z"/>
					<path d="M108.66,3.57h13.19v3.46h-8.74v3.23h8.16v3.39h-8.16v4.24h9.53v3.51h-13.97V3.57z"/>
				</g>
			</g>
		</g>
		<g>
			<g>
				<path d="M55.8,58.79c-0.17,0.28-0.34,0.54-0.72,0.81c-0.2,0.14-0.67,0.42-1.32,0.42c-1.26,0-2.27-0.91-2.27-2.52
					c0-1.4,0.95-2.51,2.3-2.51c0.54,0,1.03,0.19,1.38,0.47c0.33,0.26,0.48,0.52,0.62,0.76l-0.94,0.47
					c-0.07-0.15-0.15-0.32-0.36-0.49c-0.23-0.18-0.46-0.23-0.65-0.23c-0.77,0-1.17,0.71-1.17,1.5c0,1.04,0.53,1.56,1.17,1.56
					c0.62,0,0.87-0.43,1.03-0.71L55.8,58.79z"/>
				<path d="M59.82,60.01c-1.5,0-2.36-1.16-2.36-2.53c0-1.28,0.81-2.5,2.34-2.5c0.28,0,0.58,0.04,0.87,0.14
					c1.45,0.5,1.54,2.08,1.54,2.4c0,0.82-0.38,1.56-0.9,1.98C60.85,59.9,60.31,60.01,59.82,60.01z M60.64,56.32
					c-0.2-0.21-0.51-0.35-0.83-0.35c-0.72,0-1.17,0.63-1.17,1.49c0,1.13,0.63,1.54,1.19,1.54c0.56,0,1.17-0.4,1.2-1.4
					C61.04,57.12,60.91,56.61,60.64,56.32z"/>
				<path d="M67.5,55.13c0.14,0.51,0.28,1.02,0.44,1.53c0.26,0.91,0.31,1.06,0.46,1.98c0.14-0.94,0.17-1.1,0.39-2.07
					c0.1-0.48,0.21-0.97,0.31-1.44h1.18l-1.2,4.74h-1.22c-0.15-0.52-0.29-1.05-0.44-1.56c-0.26-0.87-0.27-0.91-0.41-1.57
					c-0.12,0.58-0.13,0.63-0.4,1.54l-0.46,1.6H64.9l-1.2-4.74h1.18c0.51,2.25,0.56,2.5,0.71,3.53c0.17-0.94,0.22-1.12,0.47-2.06
					l0.39-1.46H67.5z"/>
				<path d="M74.11,60.01c-1.5,0-2.36-1.16-2.36-2.53c0-1.28,0.81-2.5,2.34-2.5c0.28,0,0.58,0.04,0.87,0.14
					c1.45,0.5,1.54,2.08,1.54,2.4c0,0.82-0.38,1.56-0.9,1.98C75.14,59.9,74.6,60.01,74.11,60.01z M74.93,56.32
					c-0.2-0.21-0.51-0.35-0.83-0.35c-0.72,0-1.17,0.63-1.17,1.49c0,1.13,0.63,1.54,1.19,1.54c0.56,0,1.17-0.4,1.2-1.4
					C75.34,57.12,75.2,56.61,74.93,56.32z"/>
				<path d="M78.58,55.13h2.13c0.5,0.01,1.11,0.01,1.55,0.48c0.22,0.25,0.38,0.63,0.38,1.05c0,0.95-0.65,1.19-0.97,1.31l1.09,1.89
					h-1.31l-0.94-1.69h-0.75v1.69h-1.19V55.13z M79.77,56.02v1.28h0.98c0.17-0.01,0.71-0.02,0.71-0.65c0-0.6-0.44-0.62-0.68-0.63
					H79.77z"/>
				<path d="M84.96,55.13h1.13v1.93l1.77-1.93h1.42l-1.68,1.76l1.81,2.98h-1.34l-1.27-2.15l-0.72,0.76v1.39h-1.13V55.13z"/>
				<path d="M92.36,55.13v4.74h-1.18v-4.74H92.36z"/>
				<path d="M94.9,55.13h1.16l1.03,1.75c0.38,0.66,0.49,0.88,0.71,1.3l-0.05-3.04h1.13v4.74h-1.16l-0.89-1.5
					c-0.43-0.71-0.51-0.85-0.83-1.48l0.03,2.98H94.9V55.13z"/>
				<path d="M104.62,59.43c-0.19,0.18-0.6,0.55-1.4,0.55c-1.32,0-2.13-1.07-2.13-2.47c0-1.52,0.99-2.54,2.34-2.54
					c1.26,0,1.87,0.81,2.09,1.09l-0.9,0.54c-0.17-0.25-0.44-0.67-1.1-0.67c-0.9,0-1.24,0.75-1.24,1.54c0,0.54,0.15,0.97,0.38,1.21
					c0.18,0.19,0.5,0.34,0.87,0.34c0.21,0,0.46-0.05,0.65-0.18c0.31-0.2,0.35-0.46,0.38-0.71h-1.06v-0.9h2.06v2.63h-0.93V59.43z"/>
				<path d="M111.31,58.45c0.12,0.13,0.22,0.24,0.46,0.37c0.32,0.17,0.64,0.23,0.91,0.23c0.47,0,0.87-0.22,0.87-0.55
					c0-0.38-0.48-0.44-0.83-0.48c-0.26-0.03-0.52-0.07-0.78-0.12c-0.29-0.06-1.28-0.27-1.28-1.29c0-1.22,1.09-1.58,1.91-1.58
					c1.09,0,1.68,0.53,2.09,0.9l-0.87,0.62c-0.15-0.15-0.28-0.28-0.47-0.38c-0.17-0.09-0.47-0.21-0.77-0.21
					c-0.47,0-0.71,0.27-0.71,0.5c0,0.36,0.4,0.42,0.6,0.44c0.5,0.06,1.18,0.19,1.45,0.28c0.54,0.2,0.82,0.63,0.82,1.16
					c0,0.34-0.13,0.72-0.38,1.01c-0.43,0.5-1.11,0.64-1.78,0.64c-1.34,0-1.87-0.62-2.16-0.96L111.31,58.45z"/>
				<path d="M117.04,55.13h1.91c0.78,0,1.47,0,1.89,0.6c0.18,0.27,0.27,0.65,0.27,0.97c0,0.26-0.05,0.52-0.16,0.74
					c-0.41,0.85-1.28,0.87-1.93,0.88h-0.79v1.55h-1.19V55.13z M118.23,56.01v1.44h0.71c0.44,0,0.98-0.01,0.98-0.75
					c0-0.69-0.6-0.69-0.94-0.69H118.23z"/>
				<path d="M125.11,55.13l1.75,4.74h-1.26l-0.23-0.76h-1.75l-0.23,0.76h-1.26l1.76-4.74H125.11z M124.48,56.26
					c-0.06,0.24-0.13,0.49-0.19,0.73c-0.1,0.36-0.28,0.91-0.39,1.27h1.2L124.48,56.26z"/>
				<path d="M132.65,58.79c-0.17,0.28-0.34,0.54-0.72,0.81c-0.2,0.14-0.66,0.42-1.32,0.42c-1.26,0-2.27-0.91-2.27-2.52
					c0-1.4,0.95-2.51,2.3-2.51c0.54,0,1.03,0.19,1.38,0.47c0.33,0.26,0.48,0.52,0.62,0.76l-0.94,0.47
					c-0.07-0.15-0.15-0.32-0.36-0.49c-0.23-0.18-0.46-0.23-0.65-0.23c-0.76,0-1.17,0.71-1.17,1.5c0,1.04,0.53,1.56,1.17,1.56
					c0.62,0,0.87-0.43,1.03-0.71L132.65,58.79z"/>
				<path d="M134.49,55.13h3.5v0.92h-2.32v0.86h2.17v0.9h-2.17v1.13h2.53v0.93h-3.71V55.13z"/>
			</g>
		</g>
	</g>
	<polygon points="18.84,38.24 18.71,38.32 6.46,31.25 6.46,17.11 18.71,10.04 18.84,10.11 18.84,3.07 18.71,3 0.37,13.59 
		0.37,34.77 18.71,45.35 18.84,45.28 	"/>
	<g>
		<polygon points="38.84,13.62 38.81,13.6 38.81,34.75 38.84,34.73 		"/>
		<polygon points="20.56,3.06 20.39,3.16 20.39,45.19 20.56,45.29 25.65,42.35 25.65,6 		"/>
		<polygon points="27.14,6.71 27.14,41.64 32.48,38.56 32.48,9.8 		"/>
		<polygon points="33.99,10.52 33.99,37.84 39.33,34.75 39.33,13.6 		"/>
	</g>
</g>
</svg>
