<?xml version="1.0" encoding="utf-8"?>
<!-- Generator: Adobe Illustrator 24.0.2, SVG Export Plug-In . SVG Version: 6.00 Build 0)  -->
<svg version="1.1" id="Layer_1" xmlns="http://www.w3.org/2000/svg" xmlns:xlink="http://www.w3.org/1999/xlink" x="0px" y="0px"
	 viewBox="0 0 512 512" style="enable-background:new 0 0 512 512;" xml:space="preserve">
<style type="text/css">
	.st0{fill:#222222;}
</style>
<path class="st0" d="M451.9,154.2c0-11-9.2-20-20.5-20H281.7c-5.4,0-10.7,2.1-14.5,6c-3.9,4-6,9.3-6,14.9l0,97.9l165.9,0v-5.4
	c0.1-15.7,10-29.6,24.8-34.8L451.9,154.2z"/>
<path class="st0" d="M47.2,222.4c-14.2,0-25.7,11.2-25.7,25.1v130.3h51.4V260c-0.2-0.8-0.2-1.6,0-2.4v-10.1
	C72.9,233.7,61.4,222.4,47.2,222.4z"/>
<path class="st0" d="M84.9,252.8l164.3,0l0-98.7c0-11-9.2-20-20.5-20H78.1c-11.3,0-20.5,9-20.5,20v57.7c16.1,4.4,27.2,19,27.4,35.6
	L84.9,252.8z"/>
<path class="st0" d="M464.8,222.4c-14.2,0-25.7,11.2-25.7,25.1v130.3h51.4V247.5C490.5,233.7,479,222.5,464.8,222.4L464.8,222.4z"/>
<path class="st0" d="M255.2,264.9L255.2,264.9L255.2,264.9L255.2,264.9l-170.3,0v65.8l342.2,0.1v-65.8L255.2,264.9L255.2,264.9z"/>
</svg>
